<?xml version="1.0"?>
<svg version="1.1" id="Ebene_1" xmlns="http://www.w3.org/2000/svg" xmlns:xlink="http://www.w3.org/1999/xlink" x="0px" y="0px" width="59.1" height="59.1" viewBox="0 0 59.1 59.1" style="enable-background:new 0 0 59.1 59.1;" xml:space="preserve">
<style type="text/css">.st0{fill:#1B4366;}</style>
<path class="st0" d="M29.6,0H0v29.6c0,16.3,13.3,29.6,29.6,29.6h0c16.3,0,29.6-13.3,29.6-29.6v0C59.1,13.3,45.8,0,29.6,0z&#xA;&#x9; M46.5,29.6c0,2.1-0.4,4-1.1,5.9c-5.9-5.6-13.4-9.5-22.5-11.8c0.4,0.3,0.8,0.6,1.3,0.9c7.5,5.2,13.2,10.9,17.4,17&#xA;&#x9;c-3.1,3.1-7.3,5-12,5h0c-9.3,0-16.9-7.6-16.9-16.9V12.6h16.9C38.9,12.6,46.5,20.3,46.5,29.6L46.5,29.6z"></path>
</svg>